<?xml version="1.0" encoding="UTF-8"?>
<!DOCTYPE svg PUBLIC "-//W3C//DTD SVG 1.1//EN" "http://www.w3.org/Graphics/SVG/1.1/DTD/svg11.dtd">
<!-- Creator: CorelDRAW X7 -->
<svg xmlns="http://www.w3.org/2000/svg" xml:space="preserve" width="428px" height="74px" version="1.1" shape-rendering="geometricPrecision" text-rendering="geometricPrecision" image-rendering="optimizeQuality" fill-rule="evenodd" clip-rule="evenodd"
viewBox="0 0 428 74"
 xmlns:xlink="http://www.w3.org/1999/xlink">
 <defs>
    <linearGradient id="id0" gradientUnits="userSpaceOnUse" x1="51.1764" y1="-3.946" x2="72.8175" y2="77.7987">
     <stop offset="0" stop-opacity="1" stop-color="#09A1D9"/>
     <stop offset="1" stop-opacity="1" stop-color="#03739C"/>
    </linearGradient>
    <linearGradient id="id1" gradientUnits="userSpaceOnUse" x1="255.199" y1="-26.6328" x2="307.919" y2="98.3337">
     <stop offset="0" stop-opacity="1" stop-color="#AB36FF"/>
     <stop offset="1" stop-opacity="1" stop-color="#7D1BC2"/>
    </linearGradient>
    <linearGradient id="id2" gradientUnits="userSpaceOnUse" x1="255.199" y1="-26.6328" x2="307.919" y2="98.3337">
     <stop offset="0" stop-opacity="1" stop-color="#AB36FF"/>
     <stop offset="1" stop-opacity="1" stop-color="#7D1BC2"/>
    </linearGradient>
    <linearGradient id="id3" gradientUnits="userSpaceOnUse" x1="255.199" y1="-26.6328" x2="307.919" y2="98.3337">
     <stop offset="0" stop-opacity="1" stop-color="#AB36FF"/>
     <stop offset="1" stop-opacity="1" stop-color="#7D1BC2"/>
    </linearGradient>
    <linearGradient id="id4" gradientUnits="userSpaceOnUse" x1="255.199" y1="-26.6328" x2="307.919" y2="98.3337">
     <stop offset="0" stop-opacity="1" stop-color="#AB36FF"/>
     <stop offset="1" stop-opacity="1" stop-color="#7D1BC2"/>
    </linearGradient>
    <linearGradient id="id5" gradientUnits="userSpaceOnUse" x1="255.199" y1="-26.6328" x2="307.919" y2="98.3337">
     <stop offset="0" stop-opacity="1" stop-color="#AB36FF"/>
     <stop offset="1" stop-opacity="1" stop-color="#7D1BC2"/>
    </linearGradient>
    <linearGradient id="id6" gradientUnits="userSpaceOnUse" x1="255.199" y1="-26.6328" x2="307.919" y2="98.3337">
     <stop offset="0" stop-opacity="1" stop-color="#AB36FF"/>
     <stop offset="1" stop-opacity="1" stop-color="#7D1BC2"/>
    </linearGradient>
 </defs>
 <g id="Capa_x0020_1">
  <metadata id="CorelCorpID_0Corel-Layer"/>
  <g id="_1890430177088">
   <path id="path7142" fill="url(#id0)" fill-rule="nonzero" d="M56 1c-9,2 -19,10 -20,21 -9,-2 -17,-3 -24,1 -7,4 -12,12 -12,23 0,0 0,0 0,0 0,3 0,9 4,15 4,7 11,12 24,13 0,0 0,0 0,0 11,0 19,-4 25,-9 6,-5 9,-12 13,-18 7,-10 12,-15 17,-18 5,-2 9,-2 13,-2 14,0 20,10 20,20 -1,12 -5,16 -11,18 -6,2 -13,1 -18,-2 -5,-4 -9,4 -4,6 6,4 16,6 24,4 9,-3 16,-12 17,-26 0,0 0,0 0,0 0,-14 -10,-28 -27,-28 0,0 0,0 -1,0 -4,0 -10,0 -16,3 -7,4 -13,10 -20,21 -4,6 -8,12 -12,16 -5,4 -11,7 -20,7 -10,0 -15,-4 -17,-9 -3,-4 -3,-8 -3,-11 0,-8 3,-13 8,-16 5,-3 13,-3 21,0 3,1 5,-1 5,-3 3,-12 9,-17 16,-19 6,-1 14,1 19,8 3,4 9,-1 6,-5 -7,-9 -17,-13 -27,-10z"/>
   <path fill="url(#id1)" fill-rule="nonzero" d="M202 15l-6 4c-3,-3 -6,-6 -10,-8 -5,-2 -9,-3 -14,-3 -6,0 -11,1 -15,4 -5,2 -8,6 -11,10 -2,5 -4,9 -4,15 0,8 3,15 9,20 5,5 13,8 21,8 10,0 18,-4 24,-12l6 4c-4,5 -8,8 -13,10 -5,3 -11,4 -17,4 -12,0 -21,-4 -28,-12 -6,-7 -9,-14 -9,-23 0,-10 4,-18 11,-25 7,-7 15,-10 26,-10 6,0 12,1 17,4 5,2 9,6 13,10z"/>
   <polygon id="1" fill="url(#id2)" fill-rule="nonzero" points="213,1 220,1 220,70 213,70 "/>
   <path id="2" fill="url(#id3)" fill-rule="nonzero" d="M257 18c7,0 14,3 19,8 4,5 7,11 7,18 0,7 -3,13 -8,19 -4,5 -11,7 -18,7 -8,0 -14,-2 -19,-7 -5,-6 -8,-12 -8,-19 0,-7 3,-13 7,-18 5,-5 12,-8 20,-8zm0 6c-6,0 -10,2 -14,6 -4,4 -6,9 -6,14 0,4 1,7 3,11 1,3 4,5 7,7 3,2 6,2 10,2 3,0 6,0 9,-2 3,-2 6,-4 8,-7 1,-4 2,-7 2,-11 0,-5 -2,-10 -6,-14 -3,-4 -8,-6 -13,-6z"/>
   <path id="3" fill="url(#id4)" fill-rule="nonzero" d="M294 19l6 0 0 23c0,6 1,10 1,12 1,3 3,6 5,8 3,1 6,2 10,2 3,0 6,-1 9,-2 2,-2 4,-4 5,-7 1,-2 1,-6 1,-13l0 -23 7 0 0 25c0,7 -1,12 -3,15 -1,4 -4,7 -7,9 -3,1 -7,2 -12,2 -5,0 -9,-1 -12,-2 -4,-2 -6,-5 -8,-9 -1,-3 -2,-9 -2,-16l0 -24z"/>
   <path id="4" fill="url(#id5)" fill-rule="nonzero" d="M350 47l0 -6c0,-3 1,-5 2,-7 2,-5 5,-9 8,-12 4,-2 7,-3 9,-3 2,0 4,0 6,2l-3 5c-3,-1 -6,0 -9,2 -3,3 -5,6 -6,9 0,3 -1,9 -1,16l0 17 -6 0 0 -23z"/>
   <path id="5" fill="url(#id6)" fill-rule="nonzero" d="M421 53l5 2c-1,4 -3,7 -6,9 -2,2 -5,4 -8,5 -3,1 -6,1 -10,1 -8,0 -14,-2 -19,-8 -4,-5 -7,-11 -7,-18 0,-6 2,-12 6,-17 5,-6 12,-9 20,-9 9,0 15,3 21,9 3,5 5,11 5,18l-45 0c0,5 2,10 5,14 4,4 9,6 14,6 2,0 5,-1 7,-2 3,-1 5,-2 6,-3 2,-2 4,-4 6,-7zm0 -14c-1,-3 -2,-6 -4,-8 -1,-2 -4,-4 -6,-5 -3,-1 -6,-2 -9,-2 -5,0 -9,1 -13,5 -2,2 -4,5 -5,10l37 0z"/>
  </g>
 </g>
</svg>
